<svg id="Layer_1" data-name="Layer 1" class="text-gray-500 fill-current" xmlns="http://www.w3.org/2000/svg" viewBox="0 0 441.49 201.45">
    <defs>
        <style>
            .cls-1 {
                fill: #153ccc
            }
        </style>
    </defs>
    <title>Logo_BlackSubtext_NoStroke</title>
    <path d="M50,154.05H27.35v36.14H25V154.05H2.35v-1.39H50Z"></path>
    <path
        d="M76.41,190.71a28.24,28.24,0,0,1-10.29-1.82,17.64,17.64,0,0,1-7.34-5,10.7,10.7,0,0,1-2.65-7V175.7a11.12,11.12,0,0,1,2.57-7.09,16.79,16.79,0,0,1,7.06-5,26.06,26.06,0,0,1,9.8-1.8q7.75,0,12.67,3.33a10.12,10.12,0,0,1,4.92,8.74v1.47H58.43v1.52a9.72,9.72,0,0,0,2.38,6.29,15.72,15.72,0,0,0,6.55,4.54,24.45,24.45,0,0,0,9.05,1.65,29.26,29.26,0,0,0,7.94-.93,17.08,17.08,0,0,0,5.8-2.88l1.63.7Q86.59,190.7,76.41,190.71Zm-.86-27.53a20.76,20.76,0,0,0-11.47,3,11.38,11.38,0,0,0-5.52,7.72H90.83v-.33a8.17,8.17,0,0,0-2-5.27,12.93,12.93,0,0,0-5.48-3.79A21.45,21.45,0,0,0,75.55,163.18Z">
    </path>
    <path
        d="M119.64,189.31a23.5,23.5,0,0,0,10.38-2q4.09-2,4.47-5.57h2.31q-.34,4-5.18,6.51a26.24,26.24,0,0,1-12,2.46q-8.69,0-13.8-3.79a12.12,12.12,0,0,1-5.12-10.29v-.93a12,12,0,0,1,5.12-10.13q5.11-3.79,13.72-3.79,7.36,0,12.16,2.66t5.09,7.06h-2.31q-.3-3.76-4.39-6a21.52,21.52,0,0,0-10.55-2.28q-7.75,0-12.14,3.36a11.11,11.11,0,0,0-4.39,9.34v.9a10.87,10.87,0,0,0,4.43,9.19Q111.89,189.31,119.64,189.31Z">
    </path>
    <path
        d="M150.72,168.8a15.12,15.12,0,0,1,6.68-5.13,24.62,24.62,0,0,1,9.76-1.88q7.45,0,11.07,2.54t3.66,7.67v18.2h-2.31V172q0-4.48-3-6.63t-9.5-2.15a20.22,20.22,0,0,0-10.38,2.56,13,13,0,0,0-5.93,6.61v17.85H148.4V150.6h2.31Z">
    </path>
    <path
        d="M198.7,168.8a15.12,15.12,0,0,1,6.68-5.13,24.62,24.62,0,0,1,9.76-1.88q7.45,0,11.07,2.54t3.66,7.67v18.2h-2.31V172q0-4.48-3-6.63t-9.5-2.15a20.22,20.22,0,0,0-10.38,2.56,13,13,0,0,0-5.93,6.61v17.85h-2.31V162.3h2.31Z">
    </path>
    <path
        d="M240.86,175.7a11.19,11.19,0,0,1,2.55-7.18,16.51,16.51,0,0,1,7.19-5,29.21,29.21,0,0,1,10.51-1.78,29.69,29.69,0,0,1,10.44,1.73,16.52,16.52,0,0,1,7.21,4.9,11.2,11.2,0,0,1,2.63,7.14v1.24a11.24,11.24,0,0,1-2.53,7.19,16.41,16.41,0,0,1-7.17,4.95,29.22,29.22,0,0,1-10.51,1.78A29.59,29.59,0,0,1,250.68,189a16.57,16.57,0,0,1-7.21-4.91,11.16,11.16,0,0,1-2.61-7.1Zm2.31,1.08a10.06,10.06,0,0,0,2.29,6.38,14.92,14.92,0,0,0,6.38,4.52,25.19,25.19,0,0,0,9.35,1.62q7.92,0,12.91-3.58a10.92,10.92,0,0,0,5-9.23v-.8a10,10,0,0,0-2.31-6.34,15.13,15.13,0,0,0-6.4-4.55,24.75,24.75,0,0,0-9.27-1.64q-7.92,0-12.93,3.63t-5,9.15Z">
    </path>
    <path d="M295.48,190.19h-2.31V150.6h2.31Z"></path>
    <path
        d="M307.17,175.7a11.19,11.19,0,0,1,2.55-7.18,16.51,16.51,0,0,1,7.19-5,29.21,29.21,0,0,1,10.51-1.78,29.69,29.69,0,0,1,10.44,1.73,16.52,16.52,0,0,1,7.21,4.9,11.2,11.2,0,0,1,2.63,7.14v1.24a11.24,11.24,0,0,1-2.53,7.19,16.41,16.41,0,0,1-7.17,4.95,29.22,29.22,0,0,1-10.51,1.78A29.59,29.59,0,0,1,317,189a16.57,16.57,0,0,1-7.21-4.91,11.16,11.16,0,0,1-2.61-7.1Zm2.31,1.08a10.06,10.06,0,0,0,2.29,6.38,14.92,14.92,0,0,0,6.38,4.52,25.19,25.19,0,0,0,9.35,1.62q7.92,0,12.91-3.58a10.92,10.92,0,0,0,5-9.23v-.8a10,10,0,0,0-2.31-6.34,15.13,15.13,0,0,0-6.4-4.55,24.75,24.75,0,0,0-9.27-1.64q-7.92,0-12.93,3.63t-5,9.15Z">
    </path>
    <path
        d="M356.73,176q0-6.68,4.67-10.43t12.8-3.75a27.39,27.39,0,0,1,9.2,1.43,15.25,15.25,0,0,1,6.46,4.19v-5.1h2.35v27.4a9.79,9.79,0,0,1-4.71,8.62q-4.71,3.11-12.8,3.11a28.47,28.47,0,0,1-8.54-1.21,19.22,19.22,0,0,1-6.61-3.49l1.63-.93a20.67,20.67,0,0,0,5.91,3.15,23.41,23.41,0,0,0,7.53,1.09q7.15,0,11.13-2.61a8.63,8.63,0,0,0,4.11-7.37v-4.27a15.69,15.69,0,0,1-6.49,3.65,31.08,31.08,0,0,1-9.27,1.28q-8,0-12.71-3.84a12.92,12.92,0,0,1-4.67-10.54Zm2.35.54a11.78,11.78,0,0,0,3.94,9.4q3.94,3.42,11,3.42a27,27,0,0,0,10-1.64,11.16,11.16,0,0,0,5.82-4.6V170.42q-3.77-7.24-15.71-7.24-7.15,0-11.11,3.38T359.09,176.5Z">
    </path>
    <path
        d="M421.15,188l.3-.52,16-25.21H440L419.31,195l-1,1.55q-3.34,4.87-11,4.87a13.53,13.53,0,0,1-3.42-.29l0-1.33a18.89,18.89,0,0,0,3.12.23,12.8,12.8,0,0,0,6-1.27,11,11,0,0,0,4.15-4.15l2.83-4.6L401.47,162.3H404Z">
    </path>
    <path class="cls-1"
        d="M270.92,34.43a48.76,48.76,0,0,0-25.86,7.13q-11.71,7.13-19.87,20.8-17.11-27.93-45.63-27.93A53.49,53.49,0,0,0,154.91,40v99.28q10.77,5.48,24.84,5.49a46.23,46.23,0,0,0,25.47-7.38q11.51-7.38,20-21.83,8,14.06,19.67,21.64a46.63,46.63,0,0,0,25.87,7.57,54.53,54.53,0,0,0,24.84-5.58V39.88A53.72,53.72,0,0,0,270.92,34.43ZM208.86,89.8q-.39,4.13-4,11-9.34,17.41-22.91,17.41a19.46,19.46,0,0,1-16-7.52q-6-7.52-6-20.21,0-14.26,6-21.88A19.17,19.17,0,0,1,181.72,61q13.57,0,22.62,15.24,4,6.89,4.52,11.31Zm59.7,28.42a20.38,20.38,0,0,1-11.8-3.89q-5.6-3.88-10.13-11.7t-5-12.83V87.54q.49-4.43,4.52-11.31Q255.18,61,268.76,61a19,19,0,0,1,15.93,7.77q5.9,7.77,5.9,20.06,0,14.26-6,21.83A19.41,19.41,0,0,1,268.56,118.23Z">
    </path>
    <path class="cls-1"
        d="M360.1,45l.18-9.43A32.33,32.33,0,0,0,351,34.43q-14.95,0-23.31,15.64L326.65,36.4H295.57v3.48a46.25,46.25,0,0,1,13,9.8q14.21,15.24,14.21,40.81a60.37,60.37,0,0,1-6.49,28.18A46.12,46.12,0,0,1,297.87,138c-.75.43-1.53.82-2.3,1.21v3.61h33.14V75.44q4-8.85,17.06-9.73a55.49,55.49,0,0,1,2.14-5.12A44.73,44.73,0,0,1,360.1,45Z">
    </path>
    <path class="cls-1"
        d="M142.08,129.63q-14.26-15.14-14.26-40.81a60.38,60.38,0,0,1,6.49-28.18,46.71,46.71,0,0,1,18.24-19.37c.77-.45,1.56-.86,2.35-1.26V0H109.39L77.46,99.36,45.43,0H0V142.81H34.59V109.46L31.24,41.1,66,142.81H88.89L123.58,41.2l-3.35,68.27v33.35h34.69v-3.53A46.42,46.42,0,0,1,142.08,129.63Z">
    </path>
    <path class="cls-1"
        d="M441.49,87.15q0-24.88-13-38.8T393.1,34.43q-15.93,0-27.54,6.84A45.13,45.13,0,0,0,360.1,45l-.41,21.35-10.92-.79c-1,0-2,0-3,.11a68.51,68.51,0,0,0-3.91,23.69v2.75q0,23.41,15.15,38t39.63,14.6a59.33,59.33,0,0,0,24.44-5.07q11.36-5.06,17.55-13.62l-15.14-17.9q-8.85,11-24.59,11-9.54,0-15.54-5.11T375.59,100h65.89ZM409,79.28H375.59Q378.35,60,392.9,60q7.87,0,12.1,4.38t4,12.34Z">
    </path>
</svg>